<?xml version="1.0" encoding="iso-8859-1"?>
<!-- Generator: Adobe Illustrator 17.1.0, SVG Export Plug-In . SVG Version: 6.00 Build 0)  -->
<!DOCTYPE svg PUBLIC "-//W3C//DTD SVG 1.0//EN" "http://www.w3.org/TR/2001/REC-SVG-20010904/DTD/svg10.dtd">
<svg version="1.0" xmlns="http://www.w3.org/2000/svg" xmlns:xlink="http://www.w3.org/1999/xlink" x="0px" y="0px" width="110px"
	 height="110px" viewBox="0 0 110 110" style="enable-background:new 0 0 110 110;" xml:space="preserve">
<g id="Artboard">
</g>
<g id="Multicolor">
	<circle style="fill:#E04F5F;" cx="55" cy="55" r="55"/>
	<g>
		<g>
			<path style="fill:#E2E4E5;" d="M87,50c0,17.673-24,37-32,37S23,67.673,23,50s14.327-27,32-27S87,32.327,87,50z"/>
		</g>
		<g>
			<path style="fill:#3E3E3F;" d="M59,67c0,0-4-20,20-20C79,47,81,67,59,67z"/>
		</g>
		<g>
			<path style="fill:#FFFFFF;" d="M23,50c0,17.67,24,37,32,37V23C37.32,23,23,32.33,23,50z M51,67c-22,0-20-20-20-20
				C55,47,51,67,51,67z"/>
		</g>
		<g>
			<path style="fill:#3E3E3F;" d="M51,67c-22,0-20-20-20-20C55,47,51,67,51,67z"/>
		</g>
	</g>
</g>
</svg>
